<?xml version="1.0" encoding="UTF-8" standalone="no"?>
<!DOCTYPE svg PUBLIC "-//W3C//DTD SVG 1.1//EN"
 "http://www.w3.org/Graphics/SVG/1.1/DTD/svg11.dtd">
<!-- Generated by graphviz version 5.0.0 (20220707.1540)
 -->
<!-- Title: dependencies Pages: 1 -->
<svg width="860pt" height="247pt"
 viewBox="0.00 0.00 860.00 246.80" xmlns="http://www.w3.org/2000/svg" xmlns:xlink="http://www.w3.org/1999/xlink">
<g id="graph0" class="graph" transform="scale(1 1) rotate(0) translate(4 242.8)">
<title>dependencies</title>
<polygon fill="white" stroke="transparent" points="-4,4 -4,-242.8 856,-242.8 856,4 -4,4"/>
<text text-anchor="middle" x="426" y="-8.2" font-family="sans-serif" font-size="14.00">dependencies</text>
<g id="clust1" class="cluster">
<title>cluster_AuthModule</title>
<polygon fill="none" stroke="black" stroke-dasharray="1,5" points="8,-32.8 8,-230.8 844,-230.8 844,-32.8 8,-32.8"/>
</g>
<g id="clust6" class="cluster">
<title>cluster_AuthModule_providers</title>
<polygon fill="none" stroke="black" points="132,-40.8 132,-92.8 836,-92.8 836,-40.8 132,-40.8"/>
</g>
<g id="clust3" class="cluster">
<title>cluster_AuthModule_imports</title>
<polygon fill="none" stroke="black" points="16,-40.8 16,-92.8 124,-92.8 124,-40.8 16,-40.8"/>
</g>
<g id="clust4" class="cluster">
<title>cluster_AuthModule_exports</title>
<polygon fill="none" stroke="black" points="381,-170.8 381,-222.8 487,-222.8 487,-170.8 381,-170.8"/>
</g>
<!-- UsersModule -->
<g id="node1" class="node">
<title>UsersModule</title>
<polygon fill="#8dd3c7" stroke="black" points="115.94,-84.8 112.94,-88.8 91.94,-88.8 88.94,-84.8 24.06,-84.8 24.06,-48.8 115.94,-48.8 115.94,-84.8"/>
<text text-anchor="middle" x="70" y="-62.6" font-family="Times,serif" font-size="14.00">UsersModule</text>
</g>
<!-- AuthModule -->
<g id="node2" class="node">
<title>AuthModule</title>
<polygon fill="#8dd3c7" stroke="black" points="477.55,-149.8 474.55,-153.8 453.55,-153.8 450.55,-149.8 390.45,-149.8 390.45,-113.8 477.55,-113.8 477.55,-149.8"/>
<text text-anchor="middle" x="434" y="-127.6" font-family="Times,serif" font-size="14.00">AuthModule</text>
</g>
<!-- UsersModule&#45;&gt;AuthModule -->
<g id="edge1" class="edge">
<title>UsersModule&#45;&gt;AuthModule</title>
<path fill="none" stroke="black" d="M70,-85.08C70,-106.12 70,-137.8 70,-137.8 70,-137.8 380.09,-137.8 380.09,-137.8"/>
<polygon fill="black" stroke="black" points="380.09,-141.3 390.09,-137.8 380.09,-134.3 380.09,-141.3"/>
</g>
<!-- AuthService  -->
<g id="node3" class="node">
<title>AuthService </title>
<polygon fill="#fb8072" stroke="black" points="478.98,-214.8 389.02,-214.8 389.02,-178.8 478.98,-178.8 478.98,-214.8"/>
<text text-anchor="middle" x="434" y="-192.6" font-family="Times,serif" font-size="14.00">AuthService </text>
</g>
<!-- AuthModule&#45;&gt;AuthService  -->
<g id="edge2" class="edge">
<title>AuthModule&#45;&gt;AuthService </title>
<path fill="none" stroke="black" stroke-dasharray="5,2" d="M434,-149.91C434,-149.91 434,-168.79 434,-168.79"/>
<polygon fill="black" stroke="black" points="430.5,-168.79 434,-178.79 437.5,-168.79 430.5,-168.79"/>
</g>
<!-- AuthService -->
<g id="node4" class="node">
<title>AuthService</title>
<ellipse fill="#fdb462" stroke="black" cx="769" cy="-66.8" rx="59.11" ry="18"/>
<text text-anchor="middle" x="769" y="-62.6" font-family="Times,serif" font-size="14.00">AuthService</text>
</g>
<!-- AuthService&#45;&gt;AuthModule -->
<g id="edge3" class="edge">
<title>AuthService&#45;&gt;AuthModule</title>
<path fill="none" stroke="black" d="M769,-85.08C769,-106.12 769,-137.8 769,-137.8 769,-137.8 487.8,-137.8 487.8,-137.8"/>
<polygon fill="black" stroke="black" points="487.8,-134.3 477.8,-137.8 487.8,-141.3 487.8,-134.3"/>
</g>
<!-- JwtStrategy -->
<g id="node5" class="node">
<title>JwtStrategy</title>
<ellipse fill="#fdb462" stroke="black" cx="635" cy="-66.8" rx="56.77" ry="18"/>
<text text-anchor="middle" x="635" y="-62.6" font-family="Times,serif" font-size="14.00">JwtStrategy</text>
</g>
<!-- JwtStrategy&#45;&gt;AuthModule -->
<g id="edge4" class="edge">
<title>JwtStrategy&#45;&gt;AuthModule</title>
<path fill="none" stroke="black" d="M635,-84.82C635,-102.17 635,-125.8 635,-125.8 635,-125.8 487.61,-125.8 487.61,-125.8"/>
<polygon fill="black" stroke="black" points="487.61,-122.3 477.61,-125.8 487.61,-129.3 487.61,-122.3"/>
</g>
<!-- RtStrategy -->
<g id="node6" class="node">
<title>RtStrategy</title>
<ellipse fill="#fdb462" stroke="black" cx="508" cy="-66.8" rx="52.19" ry="18"/>
<text text-anchor="middle" x="508" y="-62.6" font-family="Times,serif" font-size="14.00">RtStrategy</text>
</g>
<!-- RtStrategy&#45;&gt;AuthModule -->
<g id="edge5" class="edge">
<title>RtStrategy&#45;&gt;AuthModule</title>
<path fill="none" stroke="black" d="M466.72,-78.12C466.72,-78.12 466.72,-103.74 466.72,-103.74"/>
<polygon fill="black" stroke="black" points="463.22,-103.74 466.72,-113.74 470.22,-103.74 463.22,-103.74"/>
</g>
<!-- SessionSerializer -->
<g id="node7" class="node">
<title>SessionSerializer</title>
<ellipse fill="#fdb462" stroke="black" cx="360" cy="-66.8" rx="77.59" ry="18"/>
<text text-anchor="middle" x="360" y="-62.6" font-family="Times,serif" font-size="14.00">SessionSerializer</text>
</g>
<!-- SessionSerializer&#45;&gt;AuthModule -->
<g id="edge6" class="edge">
<title>SessionSerializer&#45;&gt;AuthModule</title>
<path fill="none" stroke="black" d="M413.89,-79.95C413.89,-79.95 413.89,-103.49 413.89,-103.49"/>
<polygon fill="black" stroke="black" points="410.39,-103.49 413.89,-113.49 417.39,-103.49 410.39,-103.49"/>
</g>
<!-- localStrategy -->
<g id="node8" class="node">
<title>localStrategy</title>
<ellipse fill="#fdb462" stroke="black" cx="202" cy="-66.8" rx="61.97" ry="18"/>
<text text-anchor="middle" x="202" y="-62.6" font-family="Times,serif" font-size="14.00">localStrategy</text>
</g>
<!-- localStrategy&#45;&gt;AuthModule -->
<g id="edge7" class="edge">
<title>localStrategy&#45;&gt;AuthModule</title>
<path fill="none" stroke="black" d="M202,-84.82C202,-102.17 202,-125.8 202,-125.8 202,-125.8 380.36,-125.8 380.36,-125.8"/>
<polygon fill="black" stroke="black" points="380.36,-129.3 390.36,-125.8 380.36,-122.3 380.36,-129.3"/>
</g>
</g>
</svg>
