<?xml version="1.0" encoding="UTF-8" standalone="no"?>
<!DOCTYPE svg PUBLIC "-//W3C//DTD SVG 1.1//EN"
 "http://www.w3.org/Graphics/SVG/1.1/DTD/svg11.dtd">
<!-- Generated by graphviz version 5.0.0 (20220707.1540)
 -->
<!-- Title: dependencies Pages: 1 -->
<svg width="876pt" height="174pt"
 viewBox="0.00 0.00 876.00 173.80" xmlns="http://www.w3.org/2000/svg" xmlns:xlink="http://www.w3.org/1999/xlink">
<g id="graph0" class="graph" transform="scale(1 1) rotate(0) translate(4 169.8)">
<title>dependencies</title>
<polygon fill="white" stroke="transparent" points="-4,4 -4,-169.8 872,-169.8 872,4 -4,4"/>
<text text-anchor="middle" x="434" y="-8.2" font-family="sans-serif" font-size="14.00">dependencies</text>
<g id="clust1" class="cluster">
<title>cluster_AppModule</title>
<polygon fill="none" stroke="black" stroke-dasharray="1,5" points="8,-32.8 8,-157.8 860,-157.8 860,-32.8 8,-32.8"/>
</g>
<g id="clust6" class="cluster">
<title>cluster_AppModule_providers</title>
<polygon fill="none" stroke="black" points="722,-40.8 722,-92.8 852,-92.8 852,-40.8 722,-40.8"/>
</g>
<g id="clust3" class="cluster">
<title>cluster_AppModule_imports</title>
<polygon fill="none" stroke="black" points="16,-40.8 16,-92.8 714,-92.8 714,-40.8 16,-40.8"/>
</g>
<!-- AuthModule -->
<g id="node1" class="node">
<title>AuthModule</title>
<polygon fill="#8dd3c7" stroke="black" points="705.55,-84.8 702.55,-88.8 681.55,-88.8 678.55,-84.8 618.45,-84.8 618.45,-48.8 705.55,-48.8 705.55,-84.8"/>
<text text-anchor="middle" x="662" y="-62.6" font-family="Times,serif" font-size="14.00">AuthModule</text>
</g>
<!-- AppModule -->
<g id="node7" class="node">
<title>AppModule</title>
<polygon fill="#8dd3c7" stroke="black" points="462.66,-149.8 459.66,-153.8 438.66,-153.8 435.66,-149.8 379.34,-149.8 379.34,-113.8 462.66,-113.8 462.66,-149.8"/>
<text text-anchor="middle" x="421" y="-127.6" font-family="Times,serif" font-size="14.00">AppModule</text>
</g>
<!-- AuthModule&#45;&gt;AppModule -->
<g id="edge1" class="edge">
<title>AuthModule&#45;&gt;AppModule</title>
<path fill="none" stroke="black" d="M662,-84.91C662,-104.14 662,-131.8 662,-131.8 662,-131.8 472.7,-131.8 472.7,-131.8"/>
<polygon fill="black" stroke="black" points="472.7,-128.3 462.7,-131.8 472.7,-135.3 472.7,-128.3"/>
</g>
<!-- BranchModule -->
<g id="node2" class="node">
<title>BranchModule</title>
<polygon fill="#8dd3c7" stroke="black" points="599.98,-84.8 596.98,-88.8 575.98,-88.8 572.98,-84.8 500.02,-84.8 500.02,-48.8 599.98,-48.8 599.98,-84.8"/>
<text text-anchor="middle" x="550" y="-62.6" font-family="Times,serif" font-size="14.00">BranchModule</text>
</g>
<!-- BranchModule&#45;&gt;AppModule -->
<g id="edge2" class="edge">
<title>BranchModule&#45;&gt;AppModule</title>
<path fill="none" stroke="black" d="M550,-84.83C550,-101.2 550,-122.8 550,-122.8 550,-122.8 472.88,-122.8 472.88,-122.8"/>
<polygon fill="black" stroke="black" points="472.88,-119.3 462.88,-122.8 472.88,-126.3 472.88,-119.3"/>
</g>
<!-- PermissionModule -->
<g id="node3" class="node">
<title>PermissionModule</title>
<polygon fill="#8dd3c7" stroke="black" points="481.78,-84.8 478.78,-88.8 457.78,-88.8 454.78,-84.8 360.22,-84.8 360.22,-48.8 481.78,-48.8 481.78,-84.8"/>
<text text-anchor="middle" x="421" y="-62.6" font-family="Times,serif" font-size="14.00">PermissionModule</text>
</g>
<!-- PermissionModule&#45;&gt;AppModule -->
<g id="edge3" class="edge">
<title>PermissionModule&#45;&gt;AppModule</title>
<path fill="none" stroke="black" d="M421,-84.91C421,-84.91 421,-103.79 421,-103.79"/>
<polygon fill="black" stroke="black" points="417.5,-103.79 421,-113.79 424.5,-103.79 417.5,-103.79"/>
</g>
<!-- RolesModule -->
<g id="node4" class="node">
<title>RolesModule</title>
<polygon fill="#8dd3c7" stroke="black" points="341.94,-84.8 338.94,-88.8 317.94,-88.8 314.94,-84.8 250.06,-84.8 250.06,-48.8 341.94,-48.8 341.94,-84.8"/>
<text text-anchor="middle" x="296" y="-62.6" font-family="Times,serif" font-size="14.00">RolesModule</text>
</g>
<!-- RolesModule&#45;&gt;AppModule -->
<g id="edge4" class="edge">
<title>RolesModule&#45;&gt;AppModule</title>
<path fill="none" stroke="black" d="M296,-84.83C296,-101.2 296,-122.8 296,-122.8 296,-122.8 369.03,-122.8 369.03,-122.8"/>
<polygon fill="black" stroke="black" points="369.03,-126.3 379.03,-122.8 369.03,-119.3 369.03,-126.3"/>
</g>
<!-- RouterModule -->
<g id="node5" class="node">
<title>RouterModule</title>
<polygon fill="#8dd3c7" stroke="black" points="231.66,-84.8 228.66,-88.8 207.66,-88.8 204.66,-84.8 134.34,-84.8 134.34,-48.8 231.66,-48.8 231.66,-84.8"/>
<text text-anchor="middle" x="183" y="-62.6" font-family="Times,serif" font-size="14.00">RouterModule</text>
</g>
<!-- RouterModule&#45;&gt;AppModule -->
<g id="edge5" class="edge">
<title>RouterModule&#45;&gt;AppModule</title>
<path fill="none" stroke="black" d="M183,-84.91C183,-104.14 183,-131.8 183,-131.8 183,-131.8 369.27,-131.8 369.27,-131.8"/>
<polygon fill="black" stroke="black" points="369.27,-135.3 379.27,-131.8 369.27,-128.3 369.27,-135.3"/>
</g>
<!-- UsersModule -->
<g id="node6" class="node">
<title>UsersModule</title>
<polygon fill="#8dd3c7" stroke="black" points="115.94,-84.8 112.94,-88.8 91.94,-88.8 88.94,-84.8 24.06,-84.8 24.06,-48.8 115.94,-48.8 115.94,-84.8"/>
<text text-anchor="middle" x="70" y="-62.6" font-family="Times,serif" font-size="14.00">UsersModule</text>
</g>
<!-- UsersModule&#45;&gt;AppModule -->
<g id="edge6" class="edge">
<title>UsersModule&#45;&gt;AppModule</title>
<path fill="none" stroke="black" d="M70,-85.09C70,-107.01 70,-140.8 70,-140.8 70,-140.8 369.01,-140.8 369.01,-140.8"/>
<polygon fill="black" stroke="black" points="369.01,-144.3 379.01,-140.8 369.01,-137.3 369.01,-144.3"/>
</g>
<!-- AppService -->
<g id="node8" class="node">
<title>AppService</title>
<ellipse fill="#fdb462" stroke="black" cx="787" cy="-66.8" rx="56.75" ry="18"/>
<text text-anchor="middle" x="787" y="-62.6" font-family="Times,serif" font-size="14.00">AppService</text>
</g>
<!-- AppService&#45;&gt;AppModule -->
<g id="edge7" class="edge">
<title>AppService&#45;&gt;AppModule</title>
<path fill="none" stroke="black" d="M787,-85.09C787,-107.01 787,-140.8 787,-140.8 787,-140.8 472.98,-140.8 472.98,-140.8"/>
<polygon fill="black" stroke="black" points="472.98,-137.3 462.98,-140.8 472.98,-144.3 472.98,-137.3"/>
</g>
</g>
</svg>
