<?xml version="1.0" encoding="UTF-8" standalone="no"?>
<!DOCTYPE svg PUBLIC "-//W3C//DTD SVG 1.1//EN"
 "http://www.w3.org/Graphics/SVG/1.1/DTD/svg11.dtd">
<!-- Generated by graphviz version 5.0.0 (20220707.1540)
 -->
<!-- Title: dependencies Pages: 1 -->
<svg width="2190pt" height="326pt"
 viewBox="0.00 0.00 2190.00 325.80" xmlns="http://www.w3.org/2000/svg" xmlns:xlink="http://www.w3.org/1999/xlink">
<g id="graph0" class="graph" transform="scale(1 1) rotate(0) translate(4 321.8)">
<title>dependencies</title>
<polygon fill="white" stroke="transparent" points="-4,4 -4,-321.8 2186,-321.8 2186,4 -4,4"/>
<text text-anchor="middle" x="1091" y="-8.2" font-family="sans-serif" font-size="14.00">dependencies</text>
<g id="clust1" class="cluster">
<title>cluster_AppModule</title>
<polygon fill="none" stroke="black" stroke-dasharray="1,5" points="850,-108.8 850,-309.8 1596,-309.8 1596,-108.8 850,-108.8"/>
</g>
<g id="clust3" class="cluster">
<title>cluster_AppModule_imports</title>
<polygon fill="none" stroke="black" points="996,-116.8 996,-244.8 1588,-244.8 1588,-116.8 996,-116.8"/>
</g>
<g id="clust6" class="cluster">
<title>cluster_AppModule_providers</title>
<polygon fill="none" stroke="black" points="858,-192.8 858,-244.8 988,-244.8 988,-192.8 858,-192.8"/>
</g>
<g id="clust7" class="cluster">
<title>cluster_AuthModule</title>
<polygon fill="none" stroke="black" stroke-dasharray="1,5" points="8,-108.8 8,-176.8 842,-176.8 842,-108.8 8,-108.8"/>
</g>
<g id="clust10" class="cluster">
<title>cluster_AuthModule_exports</title>
<polygon fill="none" stroke="black" points="728,-116.8 728,-168.8 834,-168.8 834,-116.8 728,-116.8"/>
</g>
<g id="clust12" class="cluster">
<title>cluster_AuthModule_providers</title>
<polygon fill="none" stroke="black" points="16,-116.8 16,-168.8 720,-168.8 720,-116.8 16,-116.8"/>
</g>
<g id="clust13" class="cluster">
<title>cluster_BranchModule</title>
<polygon fill="none" stroke="black" stroke-dasharray="1,5" points="908,-32.8 908,-100.8 1076,-100.8 1076,-32.8 908,-32.8"/>
</g>
<g id="clust18" class="cluster">
<title>cluster_BranchModule_providers</title>
<polygon fill="none" stroke="black" points="916,-40.8 916,-92.8 1068,-92.8 1068,-40.8 916,-40.8"/>
</g>
<g id="clust19" class="cluster">
<title>cluster_PermissionModule</title>
<polygon fill="none" stroke="black" stroke-dasharray="1,5" points="1084,-32.8 1084,-100.8 1282,-100.8 1282,-32.8 1084,-32.8"/>
</g>
<g id="clust24" class="cluster">
<title>cluster_PermissionModule_providers</title>
<polygon fill="none" stroke="black" points="1092,-40.8 1092,-92.8 1274,-92.8 1274,-40.8 1092,-40.8"/>
</g>
<g id="clust25" class="cluster">
<title>cluster_RolesModule</title>
<polygon fill="none" stroke="black" stroke-dasharray="1,5" points="1290,-32.8 1290,-100.8 1446,-100.8 1446,-32.8 1290,-32.8"/>
</g>
<g id="clust30" class="cluster">
<title>cluster_RolesModule_providers</title>
<polygon fill="none" stroke="black" points="1298,-40.8 1298,-92.8 1438,-92.8 1438,-40.8 1298,-40.8"/>
</g>
<g id="clust31" class="cluster">
<title>cluster_RouterModule</title>
<polygon fill="none" stroke="black" stroke-dasharray="1,5" points="1604,-184.8 1604,-252.8 1892,-252.8 1892,-184.8 1604,-184.8"/>
</g>
<g id="clust34" class="cluster">
<title>cluster_RouterModule_exports</title>
<polygon fill="none" stroke="black" points="1768,-192.8 1768,-244.8 1884,-244.8 1884,-192.8 1768,-192.8"/>
</g>
<g id="clust36" class="cluster">
<title>cluster_RouterModule_providers</title>
<polygon fill="none" stroke="black" points="1612,-192.8 1612,-244.8 1760,-244.8 1760,-192.8 1612,-192.8"/>
</g>
<g id="clust37" class="cluster">
<title>cluster_UsersModule</title>
<polygon fill="none" stroke="black" stroke-dasharray="1,5" points="1900,-184.8 1900,-252.8 2174,-252.8 2174,-184.8 1900,-184.8"/>
</g>
<g id="clust40" class="cluster">
<title>cluster_UsersModule_exports</title>
<polygon fill="none" stroke="black" points="2056,-192.8 2056,-244.8 2166,-244.8 2166,-192.8 2056,-192.8"/>
</g>
<g id="clust42" class="cluster">
<title>cluster_UsersModule_providers</title>
<polygon fill="none" stroke="black" points="1908,-192.8 1908,-244.8 2048,-244.8 2048,-192.8 1908,-192.8"/>
</g>
<!-- AuthModule -->
<g id="node1" class="node">
<title>AuthModule</title>
<polygon fill="#8dd3c7" stroke="black" points="1091.55,-236.8 1088.55,-240.8 1067.55,-240.8 1064.55,-236.8 1004.45,-236.8 1004.45,-200.8 1091.55,-200.8 1091.55,-236.8"/>
<text text-anchor="middle" x="1048" y="-214.6" font-family="Times,serif" font-size="14.00">AuthModule</text>
</g>
<!-- AppModule -->
<g id="node7" class="node">
<title>AppModule</title>
<polygon fill="#8dd3c7" stroke="black" points="1224.66,-301.8 1221.66,-305.8 1200.66,-305.8 1197.66,-301.8 1141.34,-301.8 1141.34,-265.8 1224.66,-265.8 1224.66,-301.8"/>
<text text-anchor="middle" x="1183" y="-279.6" font-family="Times,serif" font-size="14.00">AppModule</text>
</g>
<!-- AuthModule&#45;&gt;AppModule -->
<g id="edge1" class="edge">
<title>AuthModule&#45;&gt;AppModule</title>
<path fill="none" stroke="black" d="M1091.7,-227.8C1126.38,-227.8 1169.06,-227.8 1169.06,-227.8 1169.06,-227.8 1169.06,-255.77 1169.06,-255.77"/>
<polygon fill="black" stroke="black" points="1165.56,-255.77 1169.06,-265.77 1172.56,-255.77 1165.56,-255.77"/>
</g>
<!-- AuthService  -->
<g id="node9" class="node">
<title>AuthService </title>
<polygon fill="#fb8072" stroke="black" points="825.98,-160.8 736.02,-160.8 736.02,-124.8 825.98,-124.8 825.98,-160.8"/>
<text text-anchor="middle" x="781" y="-138.6" font-family="Times,serif" font-size="14.00">AuthService </text>
</g>
<!-- AuthModule&#45;&gt;AuthService  -->
<g id="edge9" class="edge">
<title>AuthModule&#45;&gt;AuthService </title>
<path fill="none" stroke="black" stroke-dasharray="5,2" d="M1004.29,-218.8C997.03,-218.8 991.82,-218.8 991.82,-218.8 991.82,-218.8 991.82,-142.8 991.82,-142.8 991.82,-142.8 835.97,-142.8 835.97,-142.8"/>
<polygon fill="black" stroke="black" points="835.97,-139.3 825.97,-142.8 835.97,-146.3 835.97,-139.3"/>
</g>
<!-- BranchModule -->
<g id="node2" class="node">
<title>BranchModule</title>
<polygon fill="#8dd3c7" stroke="black" points="1103.98,-160.8 1100.98,-164.8 1079.98,-164.8 1076.98,-160.8 1004.02,-160.8 1004.02,-124.8 1103.98,-124.8 1103.98,-160.8"/>
<text text-anchor="middle" x="1054" y="-138.6" font-family="Times,serif" font-size="14.00">BranchModule</text>
</g>
<!-- BranchModule&#45;&gt;AppModule -->
<g id="edge2" class="edge">
<title>BranchModule&#45;&gt;AppModule</title>
<path fill="none" stroke="black" d="M1097.88,-161.01C1097.88,-197.86 1097.88,-277.8 1097.88,-277.8 1097.88,-277.8 1130.94,-277.8 1130.94,-277.8"/>
<polygon fill="black" stroke="black" points="1130.94,-281.3 1140.94,-277.8 1130.94,-274.3 1130.94,-281.3"/>
</g>
<!-- PermissionModule -->
<g id="node3" class="node">
<title>PermissionModule</title>
<polygon fill="#8dd3c7" stroke="black" points="1243.78,-160.8 1240.78,-164.8 1219.78,-164.8 1216.78,-160.8 1122.22,-160.8 1122.22,-124.8 1243.78,-124.8 1243.78,-160.8"/>
<text text-anchor="middle" x="1183" y="-138.6" font-family="Times,serif" font-size="14.00">PermissionModule</text>
</g>
<!-- PermissionModule&#45;&gt;AppModule -->
<g id="edge3" class="edge">
<title>PermissionModule&#45;&gt;AppModule</title>
<path fill="none" stroke="black" d="M1196.94,-160.94C1196.94,-160.94 1196.94,-255.73 1196.94,-255.73"/>
<polygon fill="black" stroke="black" points="1193.44,-255.72 1196.94,-265.73 1200.44,-255.73 1193.44,-255.72"/>
</g>
<!-- RolesModule -->
<g id="node4" class="node">
<title>RolesModule</title>
<polygon fill="#8dd3c7" stroke="black" points="1353.94,-160.8 1350.94,-164.8 1329.94,-164.8 1326.94,-160.8 1262.06,-160.8 1262.06,-124.8 1353.94,-124.8 1353.94,-160.8"/>
<text text-anchor="middle" x="1308" y="-138.6" font-family="Times,serif" font-size="14.00">RolesModule</text>
</g>
<!-- RolesModule&#45;&gt;AppModule -->
<g id="edge4" class="edge">
<title>RolesModule&#45;&gt;AppModule</title>
<path fill="none" stroke="black" d="M1308,-160.88C1308,-197.03 1308,-274.8 1308,-274.8 1308,-274.8 1234.97,-274.8 1234.97,-274.8"/>
<polygon fill="black" stroke="black" points="1234.97,-271.3 1224.97,-274.8 1234.97,-278.3 1234.97,-271.3"/>
</g>
<!-- RouterModule -->
<g id="node5" class="node">
<title>RouterModule</title>
<polygon fill="#8dd3c7" stroke="black" points="1469.66,-160.8 1466.66,-164.8 1445.66,-164.8 1442.66,-160.8 1372.34,-160.8 1372.34,-124.8 1469.66,-124.8 1469.66,-160.8"/>
<text text-anchor="middle" x="1421" y="-138.6" font-family="Times,serif" font-size="14.00">RouterModule</text>
</g>
<!-- RouterModule&#45;&gt;AppModule -->
<g id="edge5" class="edge">
<title>RouterModule&#45;&gt;AppModule</title>
<path fill="none" stroke="black" d="M1421,-160.94C1421,-199.03 1421,-283.8 1421,-283.8 1421,-283.8 1234.73,-283.8 1234.73,-283.8"/>
<polygon fill="black" stroke="black" points="1234.73,-280.3 1224.73,-283.8 1234.73,-287.3 1234.73,-280.3"/>
</g>
<!-- RouterService  -->
<g id="node18" class="node">
<title>RouterService </title>
<polygon fill="#fb8072" stroke="black" points="1875.58,-236.8 1776.42,-236.8 1776.42,-200.8 1875.58,-200.8 1875.58,-236.8"/>
<text text-anchor="middle" x="1826" y="-214.6" font-family="Times,serif" font-size="14.00">RouterService </text>
</g>
<!-- RouterModule&#45;&gt;RouterService  -->
<g id="edge18" class="edge">
<title>RouterModule&#45;&gt;RouterService </title>
<path fill="none" stroke="black" stroke-dasharray="5,2" d="M1396.59,-160.99C1396.59,-164.34 1396.59,-166.8 1396.59,-166.8 1396.59,-166.8 1826,-166.8 1826,-166.8 1826,-166.8 1826,-190.61 1826,-190.61"/>
<polygon fill="black" stroke="black" points="1822.5,-190.61 1826,-200.61 1829.5,-190.61 1822.5,-190.61"/>
</g>
<!-- UsersModule -->
<g id="node6" class="node">
<title>UsersModule</title>
<polygon fill="#8dd3c7" stroke="black" points="1579.94,-160.8 1576.94,-164.8 1555.94,-164.8 1552.94,-160.8 1488.06,-160.8 1488.06,-124.8 1579.94,-124.8 1579.94,-160.8"/>
<text text-anchor="middle" x="1534" y="-138.6" font-family="Times,serif" font-size="14.00">UsersModule</text>
</g>
<!-- UsersModule&#45;&gt;AuthModule -->
<g id="edge8" class="edge">
<title>UsersModule&#45;&gt;AuthModule</title>
<path fill="none" stroke="black" d="M1518.76,-161.11C1518.76,-180.95 1518.76,-209.8 1518.76,-209.8 1518.76,-209.8 1101.87,-209.8 1101.87,-209.8"/>
<polygon fill="black" stroke="black" points="1101.87,-206.3 1091.87,-209.8 1101.87,-213.3 1101.87,-206.3"/>
</g>
<!-- UsersModule&#45;&gt;AppModule -->
<g id="edge6" class="edge">
<title>UsersModule&#45;&gt;AppModule</title>
<path fill="none" stroke="black" d="M1549.24,-160.89C1549.24,-200.79 1549.24,-292.8 1549.24,-292.8 1549.24,-292.8 1235.01,-292.8 1235.01,-292.8"/>
<polygon fill="black" stroke="black" points="1235.01,-289.3 1225.01,-292.8 1235.01,-296.3 1235.01,-289.3"/>
</g>
<!-- UsersService  -->
<g id="node20" class="node">
<title>UsersService </title>
<polygon fill="#fb8072" stroke="black" points="2157.86,-236.8 2064.14,-236.8 2064.14,-200.8 2157.86,-200.8 2157.86,-236.8"/>
<text text-anchor="middle" x="2111" y="-214.6" font-family="Times,serif" font-size="14.00">UsersService </text>
</g>
<!-- UsersModule&#45;&gt;UsersService  -->
<g id="edge20" class="edge">
<title>UsersModule&#45;&gt;UsersService </title>
<path fill="none" stroke="black" stroke-dasharray="5,2" d="M1579.76,-136.8C1716.23,-136.8 2111,-136.8 2111,-136.8 2111,-136.8 2111,-190.6 2111,-190.6"/>
<polygon fill="black" stroke="black" points="2107.5,-190.6 2111,-200.6 2114.5,-190.6 2107.5,-190.6"/>
</g>
<!-- AppService -->
<g id="node8" class="node">
<title>AppService</title>
<ellipse fill="#fdb462" stroke="black" cx="923" cy="-218.8" rx="56.75" ry="18"/>
<text text-anchor="middle" x="923" y="-214.6" font-family="Times,serif" font-size="14.00">AppService</text>
</g>
<!-- AppService&#45;&gt;AppModule -->
<g id="edge7" class="edge">
<title>AppService&#45;&gt;AppModule</title>
<path fill="none" stroke="black" d="M923,-237.08C923,-258.12 923,-289.8 923,-289.8 923,-289.8 1131.23,-289.8 1131.23,-289.8"/>
<polygon fill="black" stroke="black" points="1131.23,-293.3 1141.23,-289.8 1131.23,-286.3 1131.23,-293.3"/>
</g>
<!-- AuthService -->
<g id="node10" class="node">
<title>AuthService</title>
<ellipse fill="#fdb462" stroke="black" cx="215" cy="-142.8" rx="59.11" ry="18"/>
<text text-anchor="middle" x="215" y="-138.6" font-family="Times,serif" font-size="14.00">AuthService</text>
</g>
<!-- AuthService&#45;&gt;AuthModule -->
<g id="edge10" class="edge">
<title>AuthService&#45;&gt;AuthModule</title>
<path fill="none" stroke="black" d="M215,-160.84C215,-174.09 215,-189.8 215,-189.8 215,-189.8 1033.41,-189.8 1033.41,-189.8 1033.41,-189.8 1033.41,-190.88 1033.41,-190.88"/>
<polygon fill="black" stroke="black" points="1029.91,-190.6 1033.41,-200.6 1036.91,-190.6 1029.91,-190.6"/>
</g>
<!-- JwtStrategy -->
<g id="node11" class="node">
<title>JwtStrategy</title>
<ellipse fill="#fdb462" stroke="black" cx="81" cy="-142.8" rx="56.77" ry="18"/>
<text text-anchor="middle" x="81" y="-138.6" font-family="Times,serif" font-size="14.00">JwtStrategy</text>
</g>
<!-- JwtStrategy&#45;&gt;AuthModule -->
<g id="edge11" class="edge">
<title>JwtStrategy&#45;&gt;AuthModule</title>
<path fill="none" stroke="black" d="M81,-161.04C81,-176.37 81,-195.8 81,-195.8 81,-195.8 1018.82,-195.8 1018.82,-195.8 1018.82,-195.8 1018.82,-196.29 1018.82,-196.29"/>
<polygon fill="black" stroke="black" points="1015.32,-190.68 1018.82,-200.68 1022.32,-190.68 1015.32,-190.68"/>
</g>
<!-- RtStrategy -->
<g id="node12" class="node">
<title>RtStrategy</title>
<ellipse fill="#fdb462" stroke="black" cx="660" cy="-142.8" rx="52.19" ry="18"/>
<text text-anchor="middle" x="660" y="-138.6" font-family="Times,serif" font-size="14.00">RtStrategy</text>
</g>
<!-- RtStrategy&#45;&gt;AuthModule -->
<g id="edge12" class="edge">
<title>RtStrategy&#45;&gt;AuthModule</title>
<path fill="none" stroke="black" d="M660,-160.94C660,-167.26 660,-172.8 660,-172.8 660,-172.8 1077.18,-172.8 1077.18,-172.8 1077.18,-172.8 1077.18,-190.62 1077.18,-190.62"/>
<polygon fill="black" stroke="black" points="1073.68,-190.62 1077.18,-200.62 1080.68,-190.62 1073.68,-190.62"/>
</g>
<!-- SessionSerializer -->
<g id="node13" class="node">
<title>SessionSerializer</title>
<ellipse fill="#fdb462" stroke="black" cx="512" cy="-142.8" rx="77.59" ry="18"/>
<text text-anchor="middle" x="512" y="-138.6" font-family="Times,serif" font-size="14.00">SessionSerializer</text>
</g>
<!-- SessionSerializer&#45;&gt;AuthModule -->
<g id="edge13" class="edge">
<title>SessionSerializer&#45;&gt;AuthModule</title>
<path fill="none" stroke="black" d="M512,-160.8C512,-169.8 512,-178.8 512,-178.8 512,-178.8 1062.59,-178.8 1062.59,-178.8 1062.59,-178.8 1062.59,-190.67 1062.59,-190.67"/>
<polygon fill="black" stroke="black" points="1059.09,-190.67 1062.59,-200.67 1066.09,-190.67 1059.09,-190.67"/>
</g>
<!-- localStrategy -->
<g id="node14" class="node">
<title>localStrategy</title>
<ellipse fill="#fdb462" stroke="black" cx="354" cy="-142.8" rx="61.97" ry="18"/>
<text text-anchor="middle" x="354" y="-138.6" font-family="Times,serif" font-size="14.00">localStrategy</text>
</g>
<!-- localStrategy&#45;&gt;AuthModule -->
<g id="edge14" class="edge">
<title>localStrategy&#45;&gt;AuthModule</title>
<path fill="none" stroke="black" d="M354,-160.9C354,-171.89 354,-183.8 354,-183.8 354,-183.8 1048,-183.8 1048,-183.8 1048,-183.8 1048,-190.48 1048,-190.48"/>
<polygon fill="black" stroke="black" points="1044.5,-190.48 1048,-200.48 1051.5,-190.48 1044.5,-190.48"/>
</g>
<!-- BranchService -->
<g id="node15" class="node">
<title>BranchService</title>
<ellipse fill="#fdb462" stroke="black" cx="992" cy="-66.8" rx="67.76" ry="18"/>
<text text-anchor="middle" x="992" y="-62.6" font-family="Times,serif" font-size="14.00">BranchService</text>
</g>
<!-- BranchService&#45;&gt;BranchModule -->
<g id="edge15" class="edge">
<title>BranchService&#45;&gt;BranchModule</title>
<path fill="none" stroke="black" d="M1031.94,-81.45C1031.94,-81.45 1031.94,-114.7 1031.94,-114.7"/>
<polygon fill="black" stroke="black" points="1028.44,-114.7 1031.94,-124.7 1035.44,-114.7 1028.44,-114.7"/>
</g>
<!-- PermissionService -->
<g id="node16" class="node">
<title>PermissionService</title>
<ellipse fill="#fdb462" stroke="black" cx="1183" cy="-66.8" rx="82.83" ry="18"/>
<text text-anchor="middle" x="1183" y="-62.6" font-family="Times,serif" font-size="14.00">PermissionService</text>
</g>
<!-- PermissionService&#45;&gt;PermissionModule -->
<g id="edge16" class="edge">
<title>PermissionService&#45;&gt;PermissionModule</title>
<path fill="none" stroke="black" d="M1183,-84.81C1183,-84.81 1183,-114.65 1183,-114.65"/>
<polygon fill="black" stroke="black" points="1179.5,-114.65 1183,-124.65 1186.5,-114.65 1179.5,-114.65"/>
</g>
<!-- RolesService -->
<g id="node17" class="node">
<title>RolesService</title>
<ellipse fill="#fdb462" stroke="black" cx="1368" cy="-66.8" rx="61.98" ry="18"/>
<text text-anchor="middle" x="1368" y="-62.6" font-family="Times,serif" font-size="14.00">RolesService</text>
</g>
<!-- RolesService&#45;&gt;RolesModule -->
<g id="edge17" class="edge">
<title>RolesService&#45;&gt;RolesModule</title>
<path fill="none" stroke="black" d="M1329.87,-81.1C1329.87,-81.1 1329.87,-114.53 1329.87,-114.53"/>
<polygon fill="black" stroke="black" points="1326.37,-114.53 1329.87,-124.53 1333.37,-114.53 1326.37,-114.53"/>
</g>
<!-- RouterService -->
<g id="node19" class="node">
<title>RouterService</title>
<ellipse fill="#fdb462" stroke="black" cx="1686" cy="-218.8" rx="66.05" ry="18"/>
<text text-anchor="middle" x="1686" y="-214.6" font-family="Times,serif" font-size="14.00">RouterService</text>
</g>
<!-- RouterService&#45;&gt;RouterModule -->
<g id="edge19" class="edge">
<title>RouterService&#45;&gt;RouterModule</title>
<path fill="none" stroke="black" d="M1619.62,-218.8C1548.41,-218.8 1445.41,-218.8 1445.41,-218.8 1445.41,-218.8 1445.41,-170.81 1445.41,-170.81"/>
<polygon fill="black" stroke="black" points="1448.91,-170.81 1445.41,-160.81 1441.91,-170.81 1448.91,-170.81"/>
</g>
<!-- UsersService -->
<g id="node21" class="node">
<title>UsersService</title>
<ellipse fill="#fdb462" stroke="black" cx="1978" cy="-218.8" rx="61.97" ry="18"/>
<text text-anchor="middle" x="1978" y="-214.6" font-family="Times,serif" font-size="14.00">UsersService</text>
</g>
<!-- UsersService&#45;&gt;UsersModule -->
<g id="edge21" class="edge">
<title>UsersService&#45;&gt;UsersModule</title>
<path fill="none" stroke="black" d="M1978,-200.77C1978,-180.03 1978,-148.8 1978,-148.8 1978,-148.8 1589.84,-148.8 1589.84,-148.8"/>
<polygon fill="black" stroke="black" points="1589.84,-145.3 1579.84,-148.8 1589.84,-152.3 1589.84,-145.3"/>
</g>
</g>
</svg>
